<?xml version="1.0" encoding="utf-8"?>
<svg xml:space="preserve" viewBox="0 0 100 100" y="0px" x="0px" xmlns:xlink="http://www.w3.org/1999/xlink" xmlns="http://www.w3.org/2000/svg" id="Layer_1" version="1.1" style="height: 100%; width: 100%; background: none; shape-rendering: auto;" width="200px" height="200px"><g class="ldl-scale" style="transform-origin: 50% 50%; transform: rotate(0deg) scale(0.8, 0.8);"><g class="ldl-ani"><g class="ldl-layer"><g class="ldl-ani" style="transform: scale(0.91); transform-origin: 50px 50px; animation: 1.11111s linear -0.833333s infinite normal forwards running breath-80a998a5-477d-4ba1-b16d-3c00cbb804d0;"><path d="M85.52,46.14C85.52,46.14,85.52,46.14,85.52,46.14c-0.15-7.59-6.34-13.69-13.96-13.69c-5.9,0-10.93,3.66-12.98,8.82 c-0.99-0.26-2.02-0.4-3.08-0.4c-6.69,0-12.11,5.42-12.11,12.11c0,6.69,5.42,12.11,12.11,12.11h30.02c5.24,0,9.48-4.24,9.48-9.48 C95,50.39,90.76,46.14,85.52,46.14z" stroke-miterlimit="10" stroke-linejoin="round" stroke-linecap="round" stroke-width="3.5" stroke="#323334" fill="#D2D2D3" style="fill: rgb(210, 210, 211); stroke: rgb(50, 51, 52);"></path></g></g><g class="ldl-layer"><g class="ldl-ani" style="transform: scale(0.91); transform-origin: 50px 50px; animation: 1.11111s linear -1.11111s infinite normal forwards running breath-80a998a5-477d-4ba1-b16d-3c00cbb804d0;"><path d="M66.95,49.81c1.08-2.39,1.68-5.03,1.68-7.82c0-10.52-8.53-19.05-19.05-19.05c-7.83,0-14.56,4.73-17.49,11.49 c-1.77-0.9-3.76-1.42-5.88-1.42c-7.15,0-12.94,5.79-12.94,12.94c0,1.48,0.26,2.89,0.72,4.22C8.77,51.83,5,56.71,5,62.48 c0,7.03,5.6,12.73,12.58,12.92v0.02h46.73c7.15,0,12.94-5.79,12.94-12.94C77.26,56.24,72.83,51.03,66.95,49.81z" stroke-miterlimit="10" stroke-linejoin="round" stroke-linecap="round" stroke-width="3.5" stroke="#323334" fill="#F2F2F3" style="fill: rgb(242, 242, 243); stroke: rgb(50, 51, 52);"></path></g></g><metadata xmlns:d="https://loading.io/stock/">
<d:name>weather</d:name>
<d:tags>weather,nature,sky,froecast,cloud,cloudy,cold</d:tags>
<d:license>by</d:license>
<d:slug>nl4eoa</d:slug>
</metadata></g></g><style id="breath-80a998a5-477d-4ba1-b16d-3c00cbb804d0" data-anikit="">@keyframes breath-80a998a5-477d-4ba1-b16d-3c00cbb804d0
{
  0% {
    animation-timing-function: cubic-bezier(0.9647,0.2413,-0.0705,0.7911);
    transform: scale(0.9099999999999999);
  }
  51% {
    animation-timing-function: cubic-bezier(0.9226,0.2631,-0.0308,0.7628);
    transform: scale(1.02994);
  }
  100% {
    transform: scale(0.9099999999999999);
  }
}</style><!-- [ldio] generated by https://loading.io/ --></svg>