<?xml version="1.0" encoding="utf-8"?>
<svg xml:space="preserve" viewBox="0 0 100 100" y="0px" x="0px" xmlns:xlink="http://www.w3.org/1999/xlink" xmlns="http://www.w3.org/2000/svg" id="Layer_1" version="1.1" style="height: 100%; width: 100%; background: none; shape-rendering: auto;" width="200px" height="200px"><g class="ldl-scale" style="transform-origin: 50% 50%; transform: rotate(0deg) scale(0.8, 0.8);"><g class="ldl-ani"><g class="ldl-layer"><g class="ldl-ani" style="transform: scale(0.91); transform-origin: 50px 50px; animation: 1.11111s linear -0.740741s infinite normal forwards running breath-43996e69-60e7-4132-8896-7cec15eec5d7;"><polygon points="59.22,58.42 70.78,58.42 66.65,68.47 76.03,68.47 63.08,87.61 63.34,75.64 53.29,75.64" stroke-miterlimit="10" stroke-linejoin="round" stroke-linecap="round" stroke-width="3.5" stroke="#323334" fill="#F3E6C8" style="fill: rgb(243, 230, 200); stroke: rgb(50, 51, 52);"></polygon></g></g><g class="ldl-layer"><g class="ldl-ani" style="transform: scale(0.91); transform-origin: 50px 50px; animation: 1.11111s linear -0.925926s infinite normal forwards running breath-43996e69-60e7-4132-8896-7cec15eec5d7;"><path d="M81.02,33.02c0.12-0.92,0.19-1.87,0.19-2.82c0-11.94-9.68-21.62-21.62-21.62c-9.13,0-16.93,5.66-20.1,13.67 c-1.81-0.9-3.84-1.43-6.01-1.43c-6.9,0-12.58,5.19-13.36,11.88C13.73,34.29,9,40.05,9,46.92c0,7.97,6.36,14.45,14.28,14.67v0.02 h53.03c8.11,0,14.69-6.58,14.69-14.69C91,40.46,86.82,34.98,81.02,33.02z" stroke-miterlimit="10" stroke-linejoin="round" stroke-linecap="round" stroke-width="3.5" stroke="#323334" fill="#F2F2F3" style="fill: rgb(242, 242, 243); stroke: rgb(50, 51, 52);"></path></g></g><g class="ldl-layer"><g class="ldl-ani" style="transform: scale(0.91); transform-origin: 50px 50px; animation: 1.11111s linear -1.11111s infinite normal forwards running breath-43996e69-60e7-4132-8896-7cec15eec5d7;"><polygon points="33.62,46.7 51.33,46.7 45.01,62.1 59.38,62.1 39.53,91.43 39.94,73.09 24.54,73.09" stroke-miterlimit="10" stroke-linejoin="round" stroke-linecap="round" stroke-width="3.5" stroke="#323334" fill="#F3E6C8" style="fill: rgb(243, 230, 200); stroke: rgb(50, 51, 52);"></polygon></g></g><metadata xmlns:d="https://loading.io/stock/">
<d:name>weather</d:name>
<d:tags>weather,nature,sky,froecast,lightning,storm,thunder</d:tags>
<d:license>by</d:license>
<d:slug>pg6xy5</d:slug>
</metadata></g></g><style id="breath-43996e69-60e7-4132-8896-7cec15eec5d7" data-anikit="">@keyframes breath-43996e69-60e7-4132-8896-7cec15eec5d7
{
  0% {
    animation-timing-function: cubic-bezier(0.9647,0.2413,-0.0705,0.7911);
    transform: scale(0.9099999999999999);
  }
  51% {
    animation-timing-function: cubic-bezier(0.9226,0.2631,-0.0308,0.7628);
    transform: scale(1.02994);
  }
  100% {
    transform: scale(0.9099999999999999);
  }
}</style><!-- [ldio] generated by https://loading.io/ --></svg>